<?xml version="1.0" encoding="utf-8"?>
<!-- Generator: Adobe Illustrator 25.2.1, SVG Export Plug-In . SVG Version: 6.00 Build 0)  -->
<svg version="1.1" id="Слой_1" xmlns="http://www.w3.org/2000/svg" xmlns:xlink="http://www.w3.org/1999/xlink" x="0px" y="0px"
	 viewBox="0 0 494.36 512" style="enable-background:new 0 0 494.36 512;" xml:space="preserve">
<style type="text/css">
	.st0{clip-path:url(#SVGID_2_);fill:#2F2E47;}
</style>
<g>
	<defs>
		<rect id="SVGID_1_" width="494.36" height="512"/>
	</defs>
	<clipPath id="SVGID_2_">
		<use xlink:href="#SVGID_1_"  style="overflow:visible;"/>
	</clipPath>
	<path class="st0" d="M488.07,204.23c-8.34-8.34-21.87-8.34-30.21,0L225.13,437.96c-41.72,41.73-109.37,41.73-151.1,0.01
		S32.3,328.6,74.02,286.87l225.4-226.32c25.23-24.83,65.82-24.5,90.65,0.73c24.55,24.94,24.55,64.96,0.01,89.91l-225.4,226.32
		c-8.45,8.09-21.77,8.09-30.21,0c-8.34-8.34-8.34-21.87,0-30.21L335.14,145.7c8.2-8.49,7.96-22.02-0.52-30.21
		c-8.28-8-21.41-8-29.69,0L104.26,317.09c-25.04,25.03-25.04,65.62-0.01,90.65c0,0,0,0.01,0.01,0.01
		c25.37,24.21,65.29,24.21,90.66,0l225.37-226.34c41.19-42.25,40.32-109.89-1.92-151.07c-41.49-40.45-107.67-40.45-149.16,0.01
		L43.81,256.66c-58.41,58.41-58.41,153.12,0,211.53s153.12,58.41,211.53,0l232.73-233.67c8.37-8.32,8.4-21.85,0.08-30.22
		C488.12,204.28,488.09,204.25,488.07,204.23"/>
</g>
</svg>
