<?xml version="1.0" encoding="utf-8"?>
<!-- Generator: Adobe Illustrator 25.2.1, SVG Export Plug-In . SVG Version: 6.00 Build 0)  -->
<svg version="1.1" id="Слой_1" xmlns="http://www.w3.org/2000/svg" xmlns:xlink="http://www.w3.org/1999/xlink" x="0px" y="0px"
	 viewBox="0 0 167.18 147.66" style="enable-background:new 0 0 167.18 147.66;" xml:space="preserve">
<style type="text/css">
	.st0{clip-path:url(#SVGID_2_);fill:#FFFFFF;}
</style>
<g>
	<defs>
		<rect id="SVGID_1_" width="167.18" height="147.66"/>
	</defs>
	<clipPath id="SVGID_2_">
		<use xlink:href="#SVGID_1_"  style="overflow:visible;"/>
	</clipPath>
	<path class="st0" d="M79.31,122.53c2.06,5.46,1.86,10.73-0.92,15.79c-2.12,3.86-5.3,6.57-9.41,8.15
		c-8.13,3.12-17.44-0.05-21.96-7.53c-2.66-4.39-3.34-9.12-2.05-14.08c1.28-4.92,4.26-8.6,8.43-11.12
		c-3.09-9.58-4.85-19.34-7.29-28.93c-1.04-4.1-1.98-8.22-2.96-12.33c-4.54-19.08-9.08-38.17-13.63-57.25
		c-0.66-2.79-2.24-4.02-5.13-4.02c-6.24,0-12.48,0.01-18.72-0.01c-2.38-0.01-4.15-1.13-5.14-3.3c-0.97-2.13-0.61-4.16,0.88-5.94
		c1.09-1.3,2.55-1.91,4.23-1.92c6.52-0.01,13.04-0.08,19.56,0.03c7.37,0.12,13.31,4.97,15.07,12.14c0.87,3.53,1.73,7.07,2.51,10.62
		c0.2,0.89,0.56,1.12,1.43,1.12c8.08-0.03,16.16-0.02,24.24-0.02c7.51,0,15.01,0,22.52,0c20.27,0,40.54,0,60.81,0
		c3.43,0,6.87,0.03,10.3,0.05c2.82,0.02,5.6,3.39,4.99,6.29c-0.89,4.26-1.94,8.48-2.95,12.72c-4.14,17.38-8.29,34.75-12.44,52.13
		c-0.79,3.32-2.75,4.88-6.14,4.88c-27.56,0-55.11,0-82.67,0c-0.51,0-1.02,0-1.74,0c0.7,2.67,1.17,5.24,2.06,7.66
		c0.86,2.33,2.83,3.48,5.33,3.65c0.44,0.03,0.88,0.01,1.32,0.01c22.32,0,44.64-0.02,66.95,0.01c6.69,0.01,12.1,2.77,15.6,8.49
		c3.96,6.48,3.98,13.58-0.39,20c-4.23,6.21-11.74,9.04-19.06,7.38c-6.98-1.59-12.49-7.39-13.73-14.46c-0.54-3.05-0.35-6.05,0.62-9
		c0.11-0.34,0.21-0.68,0.38-1.21H79.31z M85.75,35.12c0,0.38-0.02,0.61,0,0.85c0.51,6.37,1.05,12.74,1.5,19.11
		c0.07,1.06,0.42,1.3,1.43,1.3c7.63-0.04,15.26-0.02,22.89-0.02h1.32c0.56-7.12,1.12-14.13,1.68-21.23H85.75z M76.08,56.3
		c0-0.5,0.02-0.86,0-1.22c-0.49-6.33-1.01-12.66-1.47-19c-0.07-0.98-0.57-1.03-1.33-1.03c-8.79,0.02-17.58,0.01-26.37,0.01
		c-0.34,0-0.68,0.06-1.06,0.09c0.02,0.27,0,0.43,0.04,0.58c1.54,6.49,3.11,12.97,4.62,19.46c0.22,0.93,0.61,1.18,1.53,1.17
		c7.59-0.04,15.18-0.02,22.77-0.02C75.2,56.35,75.59,56.32,76.08,56.3 M154.5,35.17h-28.73c-0.56,7.09-1.12,14.08-1.67,21.08
		c0.34,0.05,0.49,0.1,0.65,0.1c7.95,0,15.91-0.01,23.86,0.03c0.86,0,0.97-0.48,1.11-1.08c1.06-4.47,2.11-8.94,3.17-13.41
		C153.43,39.67,153.95,37.46,154.5,35.17 M88.27,67.61c0.57,7.13,1.13,14.12,1.69,21.13c0.41,0.04,0.64,0.08,0.87,0.08
		c6.16,0,12.32-0.01,18.47,0.02c0.87,0,1.06-0.35,1.11-1.13c0.35-4.7,0.74-9.4,1.12-14.11c0.16-1.97,0.32-3.94,0.49-5.99H88.27z
		 M146.75,67.54c-1.77,0-3.39,0-5.01,0c-5.71,0-11.43,0.03-17.14-0.03c-1.11-0.01-1.52,0.28-1.59,1.44
		c-0.37,5.66-0.85,11.31-1.28,16.96c-0.07,0.93-0.11,1.87-0.16,2.9h1.5c5.71,0,11.43-0.04,17.14,0.03c1.18,0.01,1.64-0.33,1.9-1.49
		c1.05-4.59,2.24-9.14,3.34-13.72C145.91,71.68,146.29,69.69,146.75,67.54 M53.56,67.53c0.06,0.41,0.08,0.6,0.12,0.79
		c1.55,6.52,3.1,13.03,4.63,19.56c0.17,0.72,0.5,0.95,1.23,0.95c6.03-0.03,12.06-0.01,18.1-0.02c0.34,0,0.68-0.06,1.12-0.11
		c-0.57-7.1-1.12-14.09-1.69-21.17H53.56z M137.07,122.5c-3.89,0.01-6.99,3.12-6.98,7.01c0.01,3.86,3.17,7,7.02,6.98
		c3.89-0.02,7-3.15,6.98-7.03C144.07,125.56,140.97,122.49,137.07,122.5 M62.58,122.49c-3.89-0.02-7.01,3.04-7.06,6.94
		c-0.05,3.84,3.12,7.05,6.96,7.06c3.88,0.01,7.02-3.09,7.06-6.96C69.58,125.68,66.45,122.51,62.58,122.49"/>
</g>
</svg>
