<?xml version="1.0" encoding="utf-8"?>
<!-- Generator: Adobe Illustrator 25.2.1, SVG Export Plug-In . SVG Version: 6.00 Build 0)  -->
<svg version="1.1" id="Layer_1" xmlns="http://www.w3.org/2000/svg" xmlns:xlink="http://www.w3.org/1999/xlink" x="0px" y="0px"
	 viewBox="0 0 28.35 28.35" style="enable-background:new 0 0 28.35 28.35;" xml:space="preserve">
<style type="text/css">
	.st0{fill:#1A2441;}
</style>
<path id="path-1" class="st0" d="M26.57,0H1.77C0.8,0,0,0.8,0,1.77v24.8c0,0.97,0.8,1.77,1.77,1.77h13.38V17.33h-3.54v-4.08h3.54
	V9.72c0-3.23,1.97-5.38,5.86-5.38c1.72,0,2.91,0.19,2.91,0.19v3.68h-2.66c-1.18,0-1.77,0.66-1.77,1.83v3.21h4.14l-0.6,4.08h-3.54
	v11.02h7.09c0.97,0,1.77-0.8,1.77-1.77V1.77C28.35,0.8,27.54,0,26.57,0z"/>
</svg>
