<?xml version="1.0" encoding="utf-8"?>
<!-- Generator: Adobe Illustrator 25.2.1, SVG Export Plug-In . SVG Version: 6.00 Build 0)  -->
<svg version="1.1" id="Layer_1" xmlns="http://www.w3.org/2000/svg" xmlns:xlink="http://www.w3.org/1999/xlink" x="0px" y="0px"
	 viewBox="0 0 28.3 28.3" style="enable-background:new 0 0 28.3 28.3;" xml:space="preserve">
<style type="text/css">
	.st0{fill:#001E45;}
</style>
<g>
	<path class="st0" d="M24.13,24.13h-4.2v-6.58c0-1.57-0.03-3.59-2.19-3.59c-2.19,0-2.52,1.71-2.52,3.48v6.69h-4.2V10.6h4.03v1.85
		h0.06c0.56-1.06,1.93-2.18,3.98-2.18c4.26,0,5.04,2.8,5.04,6.44V24.13z M6.28,8.76c-1.35,0-2.44-1.09-2.44-2.44
		c0-1.35,1.09-2.44,2.44-2.44c1.35,0,2.44,1.09,2.44,2.44C8.72,7.66,7.63,8.76,6.28,8.76 M8.39,24.13H4.18V10.6h4.21V24.13z
		 M26.23-0.02H2.07c-1.15,0-2.09,0.91-2.09,2.04v24.26c0,1.13,0.94,2.05,2.09,2.05h24.16c1.16,0,2.1-0.92,2.1-2.05V2.02
		C28.32,0.89,27.38-0.02,26.23-0.02"/>
</g>
</svg>
