<?xml version="1.0" encoding="utf-8"?>
<!-- Generator: Adobe Illustrator 25.2.1, SVG Export Plug-In . SVG Version: 6.00 Build 0)  -->
<svg version="1.1" id="Layer_1" xmlns="http://www.w3.org/2000/svg" xmlns:xlink="http://www.w3.org/1999/xlink" x="0px" y="0px"
	 viewBox="0 0 512 512" style="enable-background:new 0 0 512 512;" xml:space="preserve">
<style type="text/css">
	.st0{fill:#2E2E47;}
</style>
<path class="st0" d="M320,149.3V64c0-11.8,9.6-21.3,21.3-21.3s21.3,9.6,21.3,21.3v55.7c13.5-13.4,100.3-100.8,113-113.3
	c8.5-8.2,22-8,30.2,0.5c8,8.3,8,21.4,0,29.6c-12.6,12.5-99.1,99.4-112.4,112.8H448c11.8,0,21.3,9.6,21.3,21.3
	c0,11.8-9.6,21.3-21.3,21.3h-85.3C339.1,192,320,172.9,320,149.3z M440.6,316.9c-25.6-24.3-65.8-24.3-91.3,0.1l-40.7,34.3
	c-67-27.7-120.2-81-147.9-148.1l34.1-40.5c24.3-25.6,24.4-65.7,0.1-91.3c0,0-39.5-51.3-40.2-51.9C129.4-6,88.3-6.4,62.4,18.5
	L38.1,39.7C-126.6,214.9,298.3,640,473.3,472.8l19.5-22.4c25.7-25.8,25.7-67.6,0-93.4C492,356.4,440.6,316.9,440.6,316.9
	L440.6,316.9z"/>
</svg>
