<?xml version="1.0" encoding="utf-8"?>
<!-- Generator: Adobe Illustrator 25.2.1, SVG Export Plug-In . SVG Version: 6.00 Build 0)  -->
<svg version="1.1" id="Слой_1" xmlns="http://www.w3.org/2000/svg" xmlns:xlink="http://www.w3.org/1999/xlink" x="0px" y="0px"
	 viewBox="0 0 429.4 512" style="enable-background:new 0 0 429.4 512;" xml:space="preserve">
<style type="text/css">
	.st0{clip-path:url(#SVGID_2_);fill:#2E2E47;}
</style>
<g>
	<defs>
		<rect id="SVGID_1_" width="429.4" height="512"/>
	</defs>
	<clipPath id="SVGID_2_">
		<use xlink:href="#SVGID_1_"  style="overflow:visible;"/>
	</clipPath>
	<path class="st0" d="M214.7,0C96.2,0.2,0.1,96.3,0,214.8c0,112.5,174.2,263,194.1,279.8l20.6,17.4l20.6-17.4
		c19.9-16.8,194.1-167.3,194.1-279.8C429.4,96.2,333.3,0.1,214.7,0 M214.7,427.6C149.3,368,63.9,271.3,63.9,214.8
		C63.9,131.5,131.3,64,214.6,64s150.8,67.4,150.8,150.7v0.1C365.5,271.2,280.1,368,214.7,427.6"/>
	<path class="st0" d="M214.7,149.1c35.29,0,63.9,28.61,63.9,63.9s-28.61,63.9-63.9,63.9s-63.9-28.61-63.9-63.9
		S179.41,149.1,214.7,149.1"/>
</g>
</svg>
