<?xml version="1.0" encoding="utf-8"?>
<!-- Generator: Adobe Illustrator 25.2.1, SVG Export Plug-In . SVG Version: 6.00 Build 0)  -->
<svg version="1.1" id="Layer_1" xmlns="http://www.w3.org/2000/svg" xmlns:xlink="http://www.w3.org/1999/xlink" x="0px" y="0px"
	 viewBox="0 0 28.35 23.03" style="enable-background:new 0 0 28.35 23.03;" xml:space="preserve">
<style type="text/css">
	.st0{fill:#1A2441;}
</style>
<path id="path-1_1_" class="st0" d="M28.35,2.71C27.29,3.18,26.19,3.5,25,3.64c1.22-0.72,2.13-1.87,2.56-3.23
	c-1.11,0.66-2.37,1.15-3.67,1.41C22.8,0.72,21.29,0,19.61,0c-3.21,0-5.8,2.59-5.8,5.8c0,0.46,0.03,0.93,0.12,1.34
	C9.12,6.88,4.86,4.69,1.97,1.18C1.48,2.03,1.18,2.92,1.18,4c0,1.99,1.03,3.76,2.6,4.82C2.82,8.79,1.94,8.53,1.15,8.1v0.07
	c0,2.82,2.01,5.18,4.66,5.7c-0.5,0.14-1.03,0.21-1.55,0.21c-0.36,0-0.72-0.04-1.08-0.11c0.72,2.3,2.89,4.01,5.41,4.04
	c-1.97,1.58-4.5,2.75-7.21,2.75c-0.47,0-0.93-0.03-1.38-0.1c2.56,1.65,5.65,2.37,8.93,2.37c10.69,0,16.53-8.86,16.53-16.54V5.73
	C26.57,4.91,27.56,3.9,28.35,2.71z"/>
</svg>
