<?xml version="1.0" encoding="utf-8"?>
<!-- Generator: Adobe Illustrator 25.2.1, SVG Export Plug-In . SVG Version: 6.00 Build 0)  -->
<svg version="1.1" id="Слой_1" xmlns="http://www.w3.org/2000/svg" xmlns:xlink="http://www.w3.org/1999/xlink" x="0px" y="0px"
	 viewBox="0 0 45.35 45.35" style="enable-background:new 0 0 45.35 45.35;" xml:space="preserve">
<style type="text/css">
	.st0{clip-path:url(#SVGID_2_);fill:#58B998;}
	.st1{clip-path:url(#SVGID_2_);fill:#FFFFFF;}
</style>
<g>
	<defs>
		<rect id="SVGID_1_" y="0" width="45.35" height="45.35"/>
	</defs>
	<clipPath id="SVGID_2_">
		<use xlink:href="#SVGID_1_"  style="overflow:visible;"/>
	</clipPath>
	<path class="st0" d="M37.16,5.22c-0.67-0.56-1.37-1.06-2.08-1.52c-2.77,6.87-6.93,13.31-12.5,18.87C17,28.14,10.56,32.3,3.69,35.07
		c1.21,1.85,2.72,3.56,4.51,5.05c9.64,8,23.94,6.67,31.93-2.97C48.13,27.51,46.8,13.22,37.16,5.22"/>
	<path class="st1" d="M35.07,3.69c-9.52-6.23-22.41-4.47-29.85,4.5c-6.51,7.84-6.84,18.77-1.54,26.88
		c6.88-2.77,13.32-6.93,18.89-12.5C28.14,17,32.31,10.56,35.07,3.69"/>
</g>
</svg>
