<?xml version="1.0" encoding="utf-8"?>
<!-- Generator: Adobe Illustrator 26.4.1, SVG Export Plug-In . SVG Version: 6.00 Build 0)  -->
<svg version="1.1" id="Layer_1" xmlns="http://www.w3.org/2000/svg" xmlns:xlink="http://www.w3.org/1999/xlink" x="0px" y="0px"
	 viewBox="0 0 28.3 28.3" style="enable-background:new 0 0 28.3 28.3;" xml:space="preserve">
<style type="text/css">
	.st0{fill:#fff;}
</style>
<g>
	<path class="st0" d="M24.1,24.1h-4.2v-6.6c0-1.6,0-3.6-2.2-3.6c-2.2,0-2.5,1.7-2.5,3.5v6.7H11V10.6h4v1.8h0.1
		c0.6-1.1,1.9-2.2,4-2.2c4.3,0,5,2.8,5,6.4V24.1z M6.3,8.8c-1.3,0-2.4-1.1-2.4-2.4c0-1.3,1.1-2.4,2.4-2.4c1.3,0,2.4,1.1,2.4,2.4
		C8.7,7.7,7.6,8.8,6.3,8.8 M8.4,24.1H4.2V10.6h4.2V24.1z M26.2,0H2.1C0.9,0,0,0.9,0,2v24.3c0,1.1,0.9,2,2.1,2h24.2
		c1.2,0,2.1-0.9,2.1-2V2C28.3,0.9,27.4,0,26.2,0"/>
</g>
</svg>
