<?xml version="1.0" encoding="utf-8"?>
<!-- Generator: Adobe Illustrator 25.2.1, SVG Export Plug-In . SVG Version: 6.00 Build 0)  -->
<svg version="1.1" id="Слой_1" xmlns="http://www.w3.org/2000/svg" xmlns:xlink="http://www.w3.org/1999/xlink" x="0px" y="0px"
	 viewBox="0 0 401.02 119.56" style="enable-background:new 0 0 401.02 119.56;" xml:space="preserve">
<style type="text/css">
	.st0{clip-path:url(#SVGID_2_);fill:#FFFFFF;}
	.st1{clip-path:url(#SVGID_4_);fill:url(#SVGID_5_);}
	.st2{clip-path:url(#SVGID_7_);fill:#58B998;}
	.st3{clip-path:url(#SVGID_7_);fill:#FFFFFF;}
</style>
<g>
	<defs>
		<rect id="SVGID_1_" width="401.02" height="119.56"/>
	</defs>
	<clipPath id="SVGID_2_">
		<use xlink:href="#SVGID_1_"  style="overflow:visible;"/>
	</clipPath>
	<path class="st0" d="M181.28,79.12c-6.18,0-11.46-2.19-15.83-6.56c-4.37-4.37-6.56-9.65-6.56-15.83c0-6.18,2.19-11.46,6.56-15.83
		c4.37-4.37,9.65-6.56,15.83-6.56c6.18,0,11.46,2.19,15.83,6.56c4.37,4.37,6.56,9.65,6.56,15.83c0,4.35-1.18,8.4-3.54,12.14
		l11.53,9.52h-12.44l-4.51-3.72C190.84,77.64,186.36,79.12,181.28,79.12 M181.28,70.58c2.4,0,4.55-0.57,6.47-1.71l-6.35-5.31
		l5.06-6.1l6.77,5.67c1.02-1.99,1.52-4.13,1.52-6.41c0-3.82-1.31-7.08-3.93-9.79c-2.62-2.7-5.81-4.06-9.55-4.06
		c-3.74,0-6.92,1.35-9.55,4.06c-2.62,2.71-3.93,5.97-3.93,9.79c0,3.82,1.31,7.09,3.93,9.79C174.36,69.23,177.54,70.58,181.28,70.58"
		/>
	<path class="st0" d="M223.2,79.06c-3.62,0-6.44-1.22-8.45-3.66c-2.01-2.44-3.02-5.71-3.02-9.82V47.89h8.36v16.29
		c0,4.84,1.73,7.26,5.18,7.26c1.95,0,3.49-0.73,4.61-2.2c1.12-1.46,1.68-3.62,1.68-6.47V47.89h8.36v30.5h-8.36v-3.48
		C229.69,77.68,226.9,79.06,223.2,79.06"/>
	<path class="st0" d="M260.05,79.06c-4.03,0-7.42-1.56-10.19-4.7c-2.77-3.13-4.15-6.87-4.15-11.22c0-4.35,1.38-8.09,4.15-11.22
		c2.77-3.13,6.16-4.7,10.19-4.7c1.95,0,3.7,0.41,5.25,1.22c1.54,0.82,2.72,1.77,3.54,2.87v-3.42h8.36v30.5h-8.36v-3.42
		c-0.82,1.1-1.99,2.05-3.54,2.87C263.75,78.65,262,79.06,260.05,79.06 M256.24,69.12c1.4,1.55,3.26,2.32,5.58,2.32
		c2.32,0,4.18-0.77,5.58-2.32c1.4-1.54,2.1-3.54,2.1-5.98c0-2.44-0.7-4.43-2.1-5.98c-1.4-1.55-3.26-2.32-5.58-2.32
		c-2.32,0-4.18,0.77-5.58,2.32c-1.4,1.55-2.1,3.54-2.1,5.98C254.13,65.58,254.83,67.57,256.24,69.12"/>
	<rect x="284.75" y="32.64" class="st0" width="8.36" height="45.75"/>
	<path class="st0" d="M304.86,42.89c-1.42,0-2.66-0.52-3.72-1.56c-1.06-1.04-1.59-2.29-1.59-3.75c0-1.46,0.53-2.71,1.59-3.75
		s2.3-1.56,3.72-1.56c1.5,0,2.78,0.52,3.81,1.56c1.04,1.04,1.56,2.29,1.56,3.75c0,1.46-0.52,2.71-1.56,3.75
		C307.63,42.37,306.36,42.89,304.86,42.89 M300.71,47.89h8.36v30.5h-8.36V47.89z"/>
	<path class="st0" d="M331.15,78.75c-3.42,0-6.21-0.94-8.39-2.84c-2.18-1.89-3.26-4.63-3.26-8.2v-12.5h-6.16v-7.32h6.16v-8.48h8.36
		v8.48h8.6v7.32h-8.6v10.86c0,1.87,0.41,3.2,1.22,4c0.81,0.79,2.13,1.19,3.96,1.19c1.3,0,2.44-0.18,3.42-0.55v7.38
		C334.99,78.53,333.22,78.75,331.15,78.75"/>
	<path class="st0" d="M354.41,79.06c-4.03,0-7.42-1.56-10.19-4.7c-2.77-3.13-4.15-6.87-4.15-11.22c0-4.35,1.38-8.09,4.15-11.22
		c2.77-3.13,6.16-4.7,10.19-4.7c1.95,0,3.7,0.41,5.25,1.22c1.54,0.82,2.72,1.77,3.54,2.87v-3.42h8.36v30.5h-8.36v-3.42
		c-0.82,1.1-1.99,2.05-3.54,2.87C358.11,78.65,356.37,79.06,354.41,79.06 M350.6,69.12c1.4,1.55,3.26,2.32,5.58,2.32
		c2.32,0,4.18-0.77,5.58-2.32c1.4-1.54,2.1-3.54,2.1-5.98c0-2.44-0.7-4.43-2.1-5.98c-1.4-1.55-3.26-2.32-5.58-2.32
		c-2.32,0-4.18,0.77-5.58,2.32c-1.4,1.55-2.1,3.54-2.1,5.98C348.5,65.58,349.2,67.57,350.6,69.12"/>
	<path class="st0" d="M389.43,79.06c-5.78,0-9.97-1.95-12.57-5.86l5.73-4.88c1.46,2.36,3.74,3.54,6.83,3.54
		c0.93,0,1.73-0.18,2.38-0.55c0.65-0.37,0.97-0.92,0.97-1.65c0-0.65-0.27-1.19-0.82-1.62c-0.55-0.43-1.64-0.86-3.26-1.31l-2.26-0.55
		c-2.81-0.73-4.93-1.95-6.38-3.66c-1.44-1.71-2.13-3.74-2.04-6.1c0.08-2.76,1.19-4.99,3.32-6.68c2.13-1.69,4.85-2.53,8.14-2.53
		c4.68,0,8.19,1.71,10.55,5.12l-5.49,4.45c-1.43-1.79-3.15-2.68-5.19-2.68c-0.81,0-1.52,0.18-2.13,0.55
		c-0.61,0.36-0.92,0.87-0.92,1.52c0,1.22,1,2.1,2.99,2.62l2.87,0.85c5.9,1.58,8.85,4.74,8.85,9.45c0,2.89-1.1,5.27-3.29,7.14
		C395.53,78.12,392.76,79.06,389.43,79.06"/>
</g>
<g>
	<defs>
		<path id="SVGID_3_" d="M34.02,56.69c0-12.52,10.15-22.68,22.68-22.68c12.52,0,22.68,10.15,22.68,22.68
			c0,12.52-10.15,22.68-22.68,22.68C44.17,79.37,34.02,69.22,34.02,56.69 M56.69,0C25.38,0,0,25.38,0,56.69
			C0,88,25.38,113.38,56.69,113.38c31.31,0,56.69-25.38,56.69-56.69C113.39,25.38,88,0,56.69,0z"/>
	</defs>
	<clipPath id="SVGID_4_">
		<use xlink:href="#SVGID_3_"  style="overflow:visible;"/>
	</clipPath>
	
		<radialGradient id="SVGID_5_" cx="0" cy="119.562" r="1" gradientTransform="matrix(0 187.8828 187.8828 0 -22406.9434 -59.3963)" gradientUnits="userSpaceOnUse">
		<stop  offset="0" style="stop-color:#58B999"/>
		<stop  offset="0.5" style="stop-color:#58B999"/>
		<stop  offset="0.9158" style="stop-color:#0080C9"/>
		<stop  offset="1" style="stop-color:#0080C9"/>
	</radialGradient>
	<rect y="0" class="st1" width="113.39" height="113.39"/>
</g>
<g>
	<defs>
		<rect id="SVGID_6_" width="401.02" height="119.56"/>
	</defs>
	<clipPath id="SVGID_7_">
		<use xlink:href="#SVGID_6_"  style="overflow:visible;"/>
	</clipPath>
	<path class="st2" d="M111.36,79.43c-0.67-0.56-1.37-1.06-2.08-1.52c-2.77,6.87-6.93,13.31-12.5,18.87
		c-5.57,5.57-12.01,9.74-18.89,12.5c1.21,1.85,2.72,3.56,4.51,5.05c9.64,8,23.94,6.67,31.93-2.97
		C122.33,101.73,121,87.43,111.36,79.43"/>
	<path class="st3" d="M109.28,77.91c-9.52-6.24-22.41-4.47-29.85,4.5c-6.51,7.85-6.84,18.77-1.54,26.88
		c6.88-2.77,13.32-6.93,18.89-12.5C102.35,91.21,106.51,84.78,109.28,77.91"/>
</g>
</svg>
