<?xml version="1.0" encoding="utf-8"?>
<!-- Generator: Adobe Illustrator 25.2.1, SVG Export Plug-In . SVG Version: 6.00 Build 0)  -->
<svg version="1.1" id="Слой_1" xmlns="http://www.w3.org/2000/svg" xmlns:xlink="http://www.w3.org/1999/xlink" x="0px" y="0px"
	 viewBox="0 0 512 512" style="enable-background:new 0 0 512 512;" xml:space="preserve">
<style type="text/css">
	.st0{clip-path:url(#SVGID_2_);fill:#58B998;}
</style>
<g>
	<defs>
		<rect id="SVGID_1_" width="512" height="512"/>
	</defs>
	<clipPath id="SVGID_2_">
		<use xlink:href="#SVGID_1_"  style="overflow:visible;"/>
	</clipPath>
	<path class="st0" d="M256,341.33c-47.13,0-85.33-38.21-85.33-85.33c0-47.13,38.2-85.33,85.33-85.33
		c47.13,0,85.33,38.21,85.33,85.33C341.33,303.13,303.13,341.33,256,341.33 M121.24,341.33h-99.9C9.55,341.33,0,331.78,0,320
		c0.42-63.29,46.87-116.85,109.46-126.21c11.67-1.63,22.45,6.5,24.09,18.17c0.41,2.96,0.2,5.97-0.62,8.84
		c-3.27,11.45-4.93,23.29-4.93,35.2c0.01,18.98,4.28,37.72,12.5,54.83c5.07,10.64,0.55,23.37-10.09,28.43
		c-2.85,1.36-5.96,2.06-9.11,2.07H121.24z M362.67,512H149.33c-11.78,0-21.33-9.55-21.33-21.33c0-70.69,57.31-128,128-128
		c70.69,0,128,57.31,128,128C384,502.45,374.45,512,362.67,512 M384,170.67c-47.13,0-85.33-38.2-85.33-85.33S336.87,0,384,0
		c47.13,0,85.33,38.21,85.33,85.33S431.13,170.67,384,170.67 M128,170.67c-47.13,0-85.33-38.2-85.33-85.33S80.87,0,128,0
		c47.13,0,85.33,38.21,85.33,85.33S175.13,170.67,128,170.67 M490.67,341.33h-99.9c-11.78-0.03-21.31-9.61-21.27-21.39
		c0.01-3.15,0.72-6.27,2.07-9.11c8.2-17.11,12.45-35.85,12.44-54.83c-0.04-11.91-1.73-23.76-5.03-35.2
		c-3.26-11.32,3.28-23.14,14.61-26.4c2.91-0.84,5.97-1.05,8.97-0.61C465.13,203.16,511.58,256.71,512,320
		C512,331.78,502.45,341.33,490.67,341.33"/>
</g>
</svg>
