<?xml version="1.0" encoding="utf-8"?>
<!-- Generator: Adobe Illustrator 25.2.1, SVG Export Plug-In . SVG Version: 6.00 Build 0)  -->
<svg version="1.1" id="Слой_1" xmlns="http://www.w3.org/2000/svg" xmlns:xlink="http://www.w3.org/1999/xlink" x="0px" y="0px"
	 viewBox="0 0 460.68 512" style="enable-background:new 0 0 460.68 512;" xml:space="preserve">
<style type="text/css">
	.st0{clip-path:url(#SVGID_2_);fill:#58B998;}
</style>
<g>
	<defs>
		<rect id="SVGID_1_" width="460.68" height="512"/>
	</defs>
	<clipPath id="SVGID_2_">
		<use xlink:href="#SVGID_1_"  style="overflow:visible;"/>
	</clipPath>
	<path class="st0" d="M8.62,384c17.65,30.63,56.78,41.15,87.4,23.5c0.02-0.01,0.04-0.02,0.06-0.04l9.49-5.48
		c17.92,15.33,38.52,27.22,60.76,35.07V448c0,35.35,28.65,64,64,64s64-28.65,64-64v-10.94c22.24-7.86,42.84-19.77,60.76-35.12
		l9.54,5.5c30.63,17.67,69.79,7.17,87.47-23.47c17.67-30.63,7.17-69.79-23.47-87.47l-9.47-5.46c4.26-23.2,4.26-46.98,0-70.19
		l9.47-5.46c30.63-17.67,41.14-56.83,23.47-87.47c-17.67-30.63-56.83-41.14-87.47-23.47l-9.49,5.48
		c-17.94-15.31-38.55-27.18-60.8-35.01V64c0-35.35-28.65-64-64-64s-64,28.65-64,64v10.94c-22.24,7.86-42.84,19.77-60.76,35.11
		l-9.54-5.52C65.41,86.86,26.25,97.37,8.58,128s-7.17,69.79,23.47,87.47l9.47,5.46c-4.26,23.2-4.26,46.98,0,70.19l-9.47,5.46
		C1.5,314.3-8.97,353.38,8.62,384 M230.34,170.67c47.13,0,85.33,38.21,85.33,85.33s-38.2,85.33-85.33,85.33
		s-85.33-38.21-85.33-85.33S183.21,170.67,230.34,170.67"/>
</g>
</svg>
