<?xml version="1.0" encoding="utf-8"?>
<!-- Generator: Adobe Illustrator 25.2.1, SVG Export Plug-In . SVG Version: 6.00 Build 0)  -->
<svg version="1.1" id="Слой_1" xmlns="http://www.w3.org/2000/svg" xmlns:xlink="http://www.w3.org/1999/xlink" x="0px" y="0px"
	 viewBox="0 0 512 511.99" style="enable-background:new 0 0 512 511.99;" xml:space="preserve">
<style type="text/css">
	.st0{clip-path:url(#SVGID_2_);fill:#58B998;}
</style>
<g>
	<defs>
		<rect id="SVGID_1_" width="512" height="511.99"/>
	</defs>
	<clipPath id="SVGID_2_">
		<use xlink:href="#SVGID_1_"  style="overflow:visible;"/>
	</clipPath>
	<path class="st0" d="M426.67,0H85.33C38.2,0,0,38.2,0,85.33v256c0,47.13,38.2,85.33,85.33,85.33h61.87l94.95,80.28
		c7.95,6.73,19.61,6.73,27.56,0l95.08-80.28h61.87c47.13,0,85.33-38.2,85.33-85.33v-256C512,38.2,473.79,0,426.67,0 M149.33,106.67
		H256c11.78,0,21.33,9.55,21.33,21.33c0,11.78-9.55,21.33-21.33,21.33H149.33c-11.78,0-21.33-9.55-21.33-21.33
		C128,116.22,137.55,106.67,149.33,106.67 M362.67,320H149.33c-11.78,0-21.33-9.55-21.33-21.33s9.55-21.33,21.33-21.33h213.33
		c11.78,0,21.33,9.55,21.33,21.33S374.45,320,362.67,320 M362.67,234.67H149.33c-11.78,0-21.33-9.55-21.33-21.33
		c0-11.78,9.55-21.33,21.33-21.33h213.33c11.78,0,21.33,9.55,21.33,21.33C384,225.12,374.45,234.67,362.67,234.67"/>
</g>
</svg>
