<?xml version="1.0" encoding="utf-8"?>
<!-- Generator: Adobe Illustrator 25.2.1, SVG Export Plug-In . SVG Version: 6.00 Build 0)  -->
<svg version="1.1" id="Слой_1" xmlns="http://www.w3.org/2000/svg" xmlns:xlink="http://www.w3.org/1999/xlink" x="0px" y="0px"
	 viewBox="0 0 119.56 119.56" style="enable-background:new 0 0 119.56 119.56;" xml:space="preserve">
<style type="text/css">
	.st0{display:none;}
	.st1{display:inline;}
	.st2{display:inline;clip-path:url(#SVGID_2_);fill:url(#SVGID_3_);}
	.st3{clip-path:url(#SVGID_5_);fill:#58B998;}
	.st4{clip-path:url(#SVGID_5_);fill:#FFFFFF;}
</style>
<g class="st0">
	<defs>
		<path id="SVGID_1_" d="M34.02,56.69c0-12.52,10.15-22.68,22.68-22.68c12.52,0,22.68,10.15,22.68,22.68
			c0,12.52-10.15,22.68-22.68,22.68C44.17,79.37,34.02,69.22,34.02,56.69 M56.69,0C25.38,0,0,25.38,0,56.69
			C0,88,25.38,113.38,56.69,113.38c31.31,0,56.69-25.38,56.69-56.69C113.39,25.38,88,0,56.69,0z"/>
	</defs>
	<clipPath id="SVGID_2_" class="st1">
		<use xlink:href="#SVGID_1_"  style="overflow:visible;"/>
	</clipPath>
	
		<radialGradient id="SVGID_3_" cx="0" cy="119.562" r="1" gradientTransform="matrix(0 187.8828 187.8828 0 -22406.9434 -59.3963)" gradientUnits="userSpaceOnUse">
		<stop  offset="0" style="stop-color:#58B999"/>
		<stop  offset="0.5" style="stop-color:#58B999"/>
		<stop  offset="0.9158" style="stop-color:#0080C9"/>
		<stop  offset="1" style="stop-color:#0080C9"/>
	</radialGradient>
	<rect y="0" class="st2" width="113.39" height="113.39"/>
</g>
<g>
	<defs>
		<rect id="SVGID_4_" width="119.56" height="119.56"/>
	</defs>
	<clipPath id="SVGID_5_">
		<use xlink:href="#SVGID_4_"  style="overflow:visible;"/>
	</clipPath>
	<path class="st3" d="M111.36,79.43c-0.67-0.56-1.37-1.06-2.08-1.52c-2.77,6.87-6.93,13.31-12.5,18.87
		c-5.57,5.57-12.01,9.74-18.89,12.5c1.21,1.85,2.72,3.56,4.51,5.05c9.64,8,23.94,6.67,31.93-2.97
		C122.33,101.73,121,87.43,111.36,79.43"/>
	<path class="st4" d="M109.28,77.91c-9.52-6.24-22.41-4.47-29.85,4.5c-6.51,7.85-6.84,18.77-1.54,26.88
		c6.88-2.77,13.32-6.93,18.89-12.5C102.35,91.21,106.51,84.78,109.28,77.91"/>
</g>
</svg>
